<svg width="512.000000" height="512.000000" viewBox="0 0 512 512" fill="none" xmlns="http://www.w3.org/2000/svg" xmlns:xlink="http://www.w3.org/1999/xlink">
	<desc>
			Created with Pixso.
	</desc>
	<defs/>
	<rect id="Favicon / 152" rx="0.000000" width="511.000000" height="511.000000" transform="translate(0.500000 0.500000)" fill="#FFFFFF" fill-opacity="0"/>
	<rect id="Rectangle 1" width="512.000000" height="512.000000" fill="#EEEEEE" fill-opacity="1.000000"/>
	<path id="Vector" d="M122.28 322.82C114.21 311.12 110.35 297.13 111.32 283.05L111.32 225.58C110.3 211.39 114.1 197.28 122.12 185.42C129.38 176.28 141.77 171.73 159.31 171.79C176.85 171.84 188.72 175.85 194.93 183.82C202.51 193.69 206.2 205.9 205.35 218.22L205.35 231.71L172.93 231.71L172.93 217.07C172.89 213.22 172.55 209.38 171.92 205.58C171.52 202.83 170.23 200.27 168.24 198.3C167 197.26 165.57 196.48 164.03 195.99C162.48 195.51 160.85 195.33 159.23 195.46C156.91 195.12 154.53 195.49 152.43 196.52C150.33 197.55 148.6 199.19 147.49 201.21C145.43 206.59 144.52 212.33 144.83 218.07L144.83 291.01C144.47 296.79 145.51 302.57 147.88 307.87C149.01 309.79 150.69 311.34 152.7 312.33C154.72 313.32 156.99 313.72 159.23 313.47C161.44 313.77 163.68 313.39 165.65 312.37C167.62 311.35 169.21 309.75 170.19 307.8C172.09 302.41 172.91 296.71 172.62 291.01L172.62 275.69L205.03 275.69L205.03 288.95C205.99 301.45 202.59 313.9 195.4 324.27C188.51 332.7 176.61 336.84 159.7 336.84C142.79 336.84 129.56 332.24 122.28 322.82Z" fill="#111111" fill-opacity="1.000000" fill-rule="nonzero"/>
	<path id="Vector" d="M247.46 175.15L284.97 175.15L316.63 333.47L285.45 333.47L279.83 298.49L253.56 298.49L247.23 333.24L215.57 333.24L247.46 175.15ZM276.35 278.59L266.38 214.96L256.49 278.59L276.35 278.59Z" fill="#111111" fill-opacity="1.000000" fill-rule="nonzero"/>
	<path id="Vector" d="M338.71 199.01L313.26 199.01L313.26 175.15L397.47 175.15L397.47 199.01L372.33 199.01L372.33 333.47L338.63 333.47L338.71 199.01Z" fill="#111111" fill-opacity="1.000000" fill-rule="nonzero"/>
</svg>
